<?xml version="1.0" encoding="UTF-8" standalone="no"?>
<!-- Created with Inkscape (http://www.inkscape.org/) -->

<svg
   version="1.1"
   id="svg2"
   xml:space="preserve"
   width="297mm"
   height="210mm"
   viewBox="0 0 1122.5197 793.70079"
   sodipodi:docname="color_calibration_checker.svg"
   inkscape:version="1.1.2 (1:1.1+202202050950+0a00cf5339)"
   xmlns:inkscape="http://www.inkscape.org/namespaces/inkscape"
   xmlns:sodipodi="http://sodipodi.sourceforge.net/DTD/sodipodi-0.dtd"
   xmlns="http://www.w3.org/2000/svg"
   xmlns:svg="http://www.w3.org/2000/svg"><defs
     id="defs6"><rect
       x="-37.152832"
       y="50.673645"
       width="78.727719"
       height="72.161015"
       id="rect43949" /><clipPath
       clipPathUnits="userSpaceOnUse"
       id="clipPath16"><path
         d="M 0,1.2207e-4 H 960 V 540.00012 H 0 Z"
         clip-rule="evenodd"
         id="path14" /></clipPath><clipPath
       clipPathUnits="userSpaceOnUse"
       id="clipPath32"><path
         d="M 1.4305e-5,0 H 960.00001 V 540 H 1.4305e-5 Z"
         clip-rule="evenodd"
         id="path30" /></clipPath><clipPath
       clipPathUnits="userSpaceOnUse"
       id="clipPath46"><path
         d="M 1.4305e-5,0 H 960.00001 V 540 H 1.4305e-5 Z"
         clip-rule="evenodd"
         id="path44" /></clipPath><clipPath
       clipPathUnits="userSpaceOnUse"
       id="clipPath60"><path
         d="M 1.4305e-5,0 H 960.00001 V 540 H 1.4305e-5 Z"
         clip-rule="evenodd"
         id="path58" /></clipPath><clipPath
       clipPathUnits="userSpaceOnUse"
       id="clipPath74"><path
         d="M 1.4305e-5,0 H 960.00001 V 540 H 1.4305e-5 Z"
         clip-rule="evenodd"
         id="path72" /></clipPath><clipPath
       clipPathUnits="userSpaceOnUse"
       id="clipPath88"><path
         d="M 1.4305e-5,0 H 960.00001 V 540 H 1.4305e-5 Z"
         clip-rule="evenodd"
         id="path86" /></clipPath><clipPath
       clipPathUnits="userSpaceOnUse"
       id="clipPath102"><path
         d="M 1.4305e-5,0 H 960.00001 V 540 H 1.4305e-5 Z"
         clip-rule="evenodd"
         id="path100" /></clipPath><clipPath
       clipPathUnits="userSpaceOnUse"
       id="clipPath116"><path
         d="M 1.4305e-5,0 H 960.00001 V 540 H 1.4305e-5 Z"
         clip-rule="evenodd"
         id="path114" /></clipPath><clipPath
       clipPathUnits="userSpaceOnUse"
       id="clipPath130"><path
         d="M 1.4305e-5,0 H 960.00001 V 540 H 1.4305e-5 Z"
         clip-rule="evenodd"
         id="path128" /></clipPath><clipPath
       clipPathUnits="userSpaceOnUse"
       id="clipPath144"><path
         d="M 1.4305e-5,0 H 960.00001 V 540 H 1.4305e-5 Z"
         clip-rule="evenodd"
         id="path142" /></clipPath><clipPath
       clipPathUnits="userSpaceOnUse"
       id="clipPath158"><path
         d="M 1.4305e-5,0 H 960.00001 V 540 H 1.4305e-5 Z"
         clip-rule="evenodd"
         id="path156" /></clipPath><clipPath
       clipPathUnits="userSpaceOnUse"
       id="clipPath172"><path
         d="M 1.4305e-5,0 H 960.00001 V 540 H 1.4305e-5 Z"
         clip-rule="evenodd"
         id="path170" /></clipPath><clipPath
       clipPathUnits="userSpaceOnUse"
       id="clipPath186"><path
         d="M 1.4305e-5,0 H 960.00001 V 540 H 1.4305e-5 Z"
         clip-rule="evenodd"
         id="path184" /></clipPath><clipPath
       clipPathUnits="userSpaceOnUse"
       id="clipPath200"><path
         d="M 1.4305e-5,0 H 960.00001 V 540 H 1.4305e-5 Z"
         clip-rule="evenodd"
         id="path198" /></clipPath><clipPath
       clipPathUnits="userSpaceOnUse"
       id="clipPath214"><path
         d="M 1.4305e-5,0 H 960.00001 V 540 H 1.4305e-5 Z"
         clip-rule="evenodd"
         id="path212" /></clipPath><clipPath
       clipPathUnits="userSpaceOnUse"
       id="clipPath228"><path
         d="M 1.4305e-5,0 H 960.00001 V 540 H 1.4305e-5 Z"
         clip-rule="evenodd"
         id="path226" /></clipPath><clipPath
       clipPathUnits="userSpaceOnUse"
       id="clipPath242"><path
         d="M 1.4305e-5,0 H 960.00001 V 540 H 1.4305e-5 Z"
         clip-rule="evenodd"
         id="path240" /></clipPath><clipPath
       clipPathUnits="userSpaceOnUse"
       id="clipPath256"><path
         d="M 1.4305e-5,0 H 960.00001 V 540 H 1.4305e-5 Z"
         clip-rule="evenodd"
         id="path254" /></clipPath><clipPath
       clipPathUnits="userSpaceOnUse"
       id="clipPath270"><path
         d="M 1.4305e-5,0 H 960.00001 V 540 H 1.4305e-5 Z"
         clip-rule="evenodd"
         id="path268" /></clipPath><clipPath
       clipPathUnits="userSpaceOnUse"
       id="clipPath284"><path
         d="M 1.4305e-5,0 H 960.00001 V 540 H 1.4305e-5 Z"
         clip-rule="evenodd"
         id="path282" /></clipPath><clipPath
       clipPathUnits="userSpaceOnUse"
       id="clipPath298"><path
         d="M 1.4305e-5,0 H 960.00001 V 540 H 1.4305e-5 Z"
         clip-rule="evenodd"
         id="path296" /></clipPath><clipPath
       clipPathUnits="userSpaceOnUse"
       id="clipPath312"><path
         d="M 1.4305e-5,0 H 960.00001 V 540 H 1.4305e-5 Z"
         clip-rule="evenodd"
         id="path310" /></clipPath><clipPath
       clipPathUnits="userSpaceOnUse"
       id="clipPath326"><path
         d="M 1.4305e-5,0 H 960.00001 V 540 H 1.4305e-5 Z"
         clip-rule="evenodd"
         id="path324" /></clipPath><clipPath
       clipPathUnits="userSpaceOnUse"
       id="clipPath340"><path
         d="M 1.4305e-5,0 H 960.00001 V 540 H 1.4305e-5 Z"
         clip-rule="evenodd"
         id="path338" /></clipPath><clipPath
       clipPathUnits="userSpaceOnUse"
       id="clipPath354"><path
         d="M 1.4305e-5,0 H 960.00001 V 540 H 1.4305e-5 Z"
         clip-rule="evenodd"
         id="path352" /></clipPath><clipPath
       clipPathUnits="userSpaceOnUse"
       id="clipPath366"><path
         d="M 1.4305e-5,0 H 960.00001 V 540 H 1.4305e-5 Z"
         clip-rule="evenodd"
         id="path364" /></clipPath><clipPath
       clipPathUnits="userSpaceOnUse"
       id="clipPath378"><path
         d="M 1.4305e-5,0 H 960.00001 V 540 H 1.4305e-5 Z"
         clip-rule="evenodd"
         id="path376" /></clipPath><clipPath
       clipPathUnits="userSpaceOnUse"
       id="clipPath390"><path
         d="M 1.4305e-5,0 H 960.00001 V 540 H 1.4305e-5 Z"
         clip-rule="evenodd"
         id="path388" /></clipPath><clipPath
       clipPathUnits="userSpaceOnUse"
       id="clipPath402"><path
         d="M 1.4305e-5,0 H 960.00001 V 540 H 1.4305e-5 Z"
         clip-rule="evenodd"
         id="path400" /></clipPath><clipPath
       clipPathUnits="userSpaceOnUse"
       id="clipPath414"><path
         d="M 1.4305e-5,0 H 960.00001 V 540 H 1.4305e-5 Z"
         clip-rule="evenodd"
         id="path412" /></clipPath><clipPath
       clipPathUnits="userSpaceOnUse"
       id="clipPath426"><path
         d="M 1.4305e-5,0 H 960.00001 V 540 H 1.4305e-5 Z"
         clip-rule="evenodd"
         id="path424" /></clipPath><clipPath
       clipPathUnits="userSpaceOnUse"
       id="clipPath438"><path
         d="M -1.2207e-4,540 H 960 V 0 L -1.2207e-4,6.1035e-5"
         clip-rule="evenodd"
         id="path436" /></clipPath><rect
       x="-37.152832"
       y="50.673645"
       width="78.727722"
       height="72.161018"
       id="rect43949-9" /><rect
       x="-37.152832"
       y="50.673645"
       width="78.727722"
       height="72.161018"
       id="rect43949-9-5" /><rect
       x="-37.152832"
       y="50.673645"
       width="78.727722"
       height="72.161018"
       id="rect43949-9-5-8" /></defs><sodipodi:namedview
     id="namedview4"
     pagecolor="#ffffff"
     bordercolor="#666666"
     borderopacity="1.0"
     inkscape:pageshadow="2"
     inkscape:pageopacity="0.0"
     inkscape:pagecheckerboard="0"
     showgrid="false"
     units="mm"
     inkscape:zoom="1"
     inkscape:cx="518"
     inkscape:cy="385.5"
     inkscape:window-width="1848"
     inkscape:window-height="1136"
     inkscape:window-x="1992"
     inkscape:window-y="27"
     inkscape:window-maximized="1"
     inkscape:current-layer="g8"
     showguides="true"
     inkscape:guide-bbox="true"
     inkscape:document-units="mm" /><g
     id="g8"
     inkscape:groupmode="layer"
     inkscape:label="Color_Checker"
     transform="matrix(1.3333333,0,0,-1.3333333,0,720)"><g
       id="g37121"
       transform="translate(12.832657,-17.514856)" /><g
       id="g53287"
       transform="translate(21.268171,-4.2638118)"><path
         d="m 130.39378,348.66142 h 85.03939 v 85.03938 h -85.03939 z"
         style="fill:#735244;fill-opacity:1;fill-rule:evenodd;stroke:none;stroke-width:0.815827"
         id="path24-4" /><path
         d="m 221.10246,348.66141 h 85.0393 v 85.03938 h -85.0393 z"
         style="fill:#c29682;fill-opacity:1;fill-rule:evenodd;stroke:none;stroke-width:0.815827"
         id="path38-3" /><path
         d="m 311.81104,348.66141 h 85.0394 v 85.03938 h -85.0394 z"
         style="fill:#627a9d;fill-opacity:1;fill-rule:evenodd;stroke:none;stroke-width:0.815827"
         id="path24-4-5" /><path
         d="m 402.51971,348.66141 h 85.0393 v 85.03938 h -85.0393 z"
         style="fill:#576c43;fill-opacity:1;fill-rule:evenodd;stroke:none;stroke-width:0.815827"
         id="path38-3-1" /><path
         d="m 493.2283,348.66141 h 85.0394 v 85.03938 h -85.0394 z"
         style="fill:#8580b1;fill-opacity:1;fill-rule:evenodd;stroke:none;stroke-width:0.815827"
         id="path24-4-5-7" /><path
         d="m 583.93701,348.66141 h 85.0393 v 85.03938 h -85.0393 z"
         style="fill:#67bdaa;fill-opacity:1;fill-rule:evenodd;stroke:none;stroke-width:0.815827"
         id="path38-3-1-4" /><path
         d="m 130.39377,257.95276 h 85.0394 v 85.03938 h -85.0394 z"
         style="fill:#d67e2c;fill-opacity:1;fill-rule:evenodd;stroke:none;stroke-width:0.815827"
         id="path24-4-3" /><path
         d="m 221.10246,257.95275 h 85.0393 v 85.03938 h -85.0393 z"
         style="fill:#505ba6;fill-opacity:1;fill-rule:evenodd;stroke:none;stroke-width:0.815827"
         id="path38-3-14" /><path
         d="m 311.81104,257.95275 h 85.0394 v 85.03938 h -85.0394 z"
         style="fill:#c15a63;fill-opacity:1;fill-rule:evenodd;stroke:none;stroke-width:0.815827"
         id="path24-4-5-6" /><path
         d="m 402.51971,257.95275 h 85.0393 v 85.03938 h -85.0393 z"
         style="fill:#5e3c6c;fill-opacity:1;fill-rule:evenodd;stroke:none;stroke-width:0.815827"
         id="path38-3-1-9" /><path
         d="m 493.2283,257.95275 h 85.0394 v 85.03938 h -85.0394 z"
         style="fill:#9dbc40;fill-opacity:1;fill-rule:evenodd;stroke:none;stroke-width:0.815827"
         id="path24-4-5-7-4" /><path
         d="m 583.93701,257.95275 h 85.0393 v 85.03938 h -85.0393 z"
         style="fill:#e0a32e;fill-opacity:1;fill-rule:evenodd;stroke:none;stroke-width:0.815827"
         id="path38-3-1-4-2" /><path
         d="m 130.39378,167.2441 h 85.03939 v 85.03937 h -85.03939 z"
         style="fill:#383d96;fill-opacity:1;fill-rule:evenodd;stroke:none;stroke-width:0.815827"
         id="path24-4-3-2" /><path
         d="m 221.10246,167.24409 h 85.0393 v 85.03937 h -85.0393 z"
         style="fill:#469449;fill-opacity:1;fill-rule:evenodd;stroke:none;stroke-width:0.815827"
         id="path38-3-14-6" /><path
         d="m 311.81104,167.24409 h 85.0394 v 85.03937 h -85.0394 z"
         style="fill:#ae363c;fill-opacity:1;fill-rule:evenodd;stroke:none;stroke-width:0.815827"
         id="path24-4-5-6-4" /><path
         d="m 402.51971,167.24409 h 85.0393 v 85.03937 h -85.0393 z"
         style="fill:#e7c71f;fill-opacity:1;fill-rule:evenodd;stroke:none;stroke-width:0.815827"
         id="path38-3-1-9-1" /><path
         d="m 493.2283,167.24409 h 85.0394 v 85.03937 h -85.0394 z"
         style="fill:#bb5695;fill-opacity:1;fill-rule:evenodd;stroke:none;stroke-width:0.815827"
         id="path24-4-5-7-4-2" /><path
         d="m 583.93701,167.24409 h 85.0393 v 85.03937 h -85.0393 z"
         style="fill:#0885a1;fill-opacity:1;fill-rule:evenodd;stroke:none;stroke-width:0.815827"
         id="path38-3-1-4-2-8" /><path
         d="m 130.39378,76.53544 h 85.03939 v 85.03936 h -85.03939 z"
         style="fill:#f3f3f2;fill-opacity:1;fill-rule:evenodd;stroke:none;stroke-width:0.815827"
         id="path24-4-3-2-8" /><path
         d="m 221.10246,76.535424 h 85.0393 v 85.039366 h -85.0393 z"
         style="fill:#c8c8c8;fill-opacity:1;fill-rule:evenodd;stroke:none;stroke-width:0.815827"
         id="path38-3-14-6-9" /><path
         d="m 311.81104,76.535424 h 85.0394 v 85.039366 h -85.0394 z"
         style="fill:#787878;fill-opacity:1;fill-rule:evenodd;stroke:none;stroke-width:0.815827"
         id="path24-4-5-6-4-2" /><path
         d="m 402.51971,76.535424 h 85.0393 v 85.039366 h -85.0393 z"
         style="fill:#7a7a79;fill-opacity:1;fill-rule:evenodd;stroke:none;stroke-width:0.815827"
         id="path38-3-1-9-1-8" /><path
         d="m 493.2283,76.535424 h 85.0394 v 85.039366 h -85.0394 z"
         style="fill:#555555;fill-opacity:1;fill-rule:evenodd;stroke:none;stroke-width:0.815827"
         id="path24-4-5-7-4-2-8" /><path
         d="m 583.93701,76.535434 h 85.0393 V 161.5748 h -85.0393 z"
         style="fill:#343434;fill-opacity:1;fill-rule:evenodd;stroke:none;stroke-width:0.815827"
         id="path38-3-1-4-2-8-8" /><g
         style="shape-rendering:crispEdges"
         id="g40156"
         transform="matrix(14.173229,0,0,-14.173229,39.685129,524.40946)"><rect
           x="0"
           y="0"
           width="6"
           height="6"
           fill="#000000"
           id="rect40114" /><rect
           width="1"
           height="1"
           x="1"
           y="1"
           fill="#ffffff"
           id="rect40116" /><rect
           width="1.5"
           height="1"
           x="3"
           y="1"
           fill="#ffffff"
           id="rect40118" /><rect
           width="1"
           height="1"
           x="4"
           y="1"
           fill="#ffffff"
           id="rect40120" /><rect
           width="1"
           height="1.5"
           x="4"
           y="1"
           fill="#ffffff"
           id="rect40122" /><rect
           width="1"
           height="1"
           x="2"
           y="2"
           fill="#ffffff"
           id="rect40124" /><rect
           width="1"
           height="1"
           x="4"
           y="2"
           fill="#ffffff"
           id="rect40126" /><rect
           width="1"
           height="1.5"
           x="4"
           y="2"
           fill="#ffffff"
           id="rect40128" /><rect
           width="1.5"
           height="1"
           x="3"
           y="3"
           fill="#ffffff"
           id="rect40130" /><rect
           width="1"
           height="1.5"
           x="3"
           y="3"
           fill="#ffffff"
           id="rect40132" /><rect
           width="1"
           height="1"
           x="4"
           y="3"
           fill="#ffffff"
           id="rect40134" /><rect
           width="1"
           height="1"
           x="3"
           y="4"
           fill="#ffffff"
           id="rect40136" /></g><g
         style="shape-rendering:crispEdges"
         id="g40200"
         transform="matrix(14.173229,0,0,-14.173229,674.64563,524.40943)"><rect
           x="0"
           y="0"
           width="6"
           height="6"
           fill="#000000"
           id="rect40158" /><rect
           width="1.5"
           height="1"
           x="1"
           y="2"
           fill="#ffffff"
           id="rect40160" /><rect
           width="1"
           height="1.5"
           x="1"
           y="2"
           fill="#ffffff"
           id="rect40162" /><rect
           width="1.5"
           height="1"
           x="2"
           y="2"
           fill="#ffffff"
           id="rect40164" /><rect
           width="1.5"
           height="1"
           x="3"
           y="2"
           fill="#ffffff"
           id="rect40166" /><rect
           width="1"
           height="1"
           x="4"
           y="2"
           fill="#ffffff"
           id="rect40168" /><rect
           width="1"
           height="1.5"
           x="4"
           y="2"
           fill="#ffffff"
           id="rect40170" /><rect
           width="1"
           height="1"
           x="1"
           y="3"
           fill="#ffffff"
           id="rect40172" /><rect
           width="1"
           height="1.5"
           x="1"
           y="3"
           fill="#ffffff"
           id="rect40174" /><rect
           width="1"
           height="1"
           x="4"
           y="3"
           fill="#ffffff"
           id="rect40176" /><rect
           width="1"
           height="1"
           x="1"
           y="4"
           fill="#ffffff"
           id="rect40178" /><rect
           width="1"
           height="1"
           x="3"
           y="4"
           fill="#ffffff"
           id="rect40180" /></g><g
         style="shape-rendering:crispEdges"
         id="g40244"
         transform="matrix(14.173229,0,0,-14.173229,39.685113,70.86615)"><rect
           x="0"
           y="0"
           width="6"
           height="6"
           fill="#000000"
           id="rect40202" /><rect
           width="1.5"
           height="1"
           x="3"
           y="1"
           fill="#ffffff"
           id="rect40204" /><rect
           width="1"
           height="1.5"
           x="3"
           y="1"
           fill="#ffffff"
           id="rect40206" /><rect
           width="1"
           height="1"
           x="4"
           y="1"
           fill="#ffffff"
           id="rect40208" /><rect
           width="1"
           height="1.5"
           x="4"
           y="1"
           fill="#ffffff"
           id="rect40210" /><rect
           width="1.5"
           height="1"
           x="3"
           y="2"
           fill="#ffffff"
           id="rect40212" /><rect
           width="1"
           height="1.5"
           x="3"
           y="2"
           fill="#ffffff"
           id="rect40214" /><rect
           width="1"
           height="1"
           x="4"
           y="2"
           fill="#ffffff"
           id="rect40216" /><rect
           width="1"
           height="1"
           x="3"
           y="3"
           fill="#ffffff"
           id="rect40218" /><rect
           width="1.5"
           height="1"
           x="1"
           y="4"
           fill="#ffffff"
           id="rect40220" /><rect
           width="1"
           height="1"
           x="2"
           y="4"
           fill="#ffffff"
           id="rect40222" /><rect
           width="1"
           height="1"
           x="4"
           y="4"
           fill="#ffffff"
           id="rect40224" /></g><g
         style="shape-rendering:crispEdges"
         id="g40285"
         transform="matrix(14.173229,0,0,-14.173229,674.64563,70.866142)"><rect
           x="0"
           y="0"
           width="6"
           height="6"
           fill="#000000"
           id="rect40246" /><rect
           width="1"
           height="1"
           x="1"
           y="1"
           fill="#ffffff"
           id="rect40248" /><rect
           width="1"
           height="1.5"
           x="1"
           y="1"
           fill="#ffffff"
           id="rect40250" /><rect
           width="1"
           height="1"
           x="4"
           y="1"
           fill="#ffffff"
           id="rect40252" /><rect
           width="1"
           height="1.5"
           x="4"
           y="1"
           fill="#ffffff"
           id="rect40254" /><rect
           width="1"
           height="1"
           x="1"
           y="2"
           fill="#ffffff"
           id="rect40256" /><rect
           width="1"
           height="1"
           x="4"
           y="2"
           fill="#ffffff"
           id="rect40258" /><rect
           width="1"
           height="1"
           x="2"
           y="3"
           fill="#ffffff"
           id="rect40260" /><rect
           width="1"
           height="1.5"
           x="2"
           y="3"
           fill="#ffffff"
           id="rect40262" /><rect
           width="1.5"
           height="1"
           x="2"
           y="4"
           fill="#ffffff"
           id="rect40264" /><rect
           width="1"
           height="1"
           x="3"
           y="4"
           fill="#ffffff"
           id="rect40266" /></g><text
         xml:space="preserve"
         transform="matrix(0.75000002,0,0,-0.75000002,43.569705,478.22072)"
         id="text43947"
         style="font-style:normal;font-variant:normal;font-weight:normal;font-stretch:normal;font-size:26.6667px;line-height:1.25;font-family:FoundrySterling-Bold;-inkscape-font-specification:FoundrySterling-Bold;font-variant-ligatures:normal;font-variant-caps:normal;font-variant-numeric:normal;font-feature-settings:normal;text-align:center;letter-spacing:0px;word-spacing:0px;writing-mode:lr-tb;white-space:pre;shape-inside:url(#rect43949);fill:#000000;fill-opacity:1;stroke:none"><tspan
           x="-6.375728"
           y="74.181347"
           id="tspan54430">0</tspan></text><text
         xml:space="preserve"
         transform="matrix(0.75000002,0,0,-0.75000002,755.60441,478.67277)"
         id="text43947-3"
         style="font-style:normal;font-variant:normal;font-weight:normal;font-stretch:normal;font-size:26.6667px;line-height:1.25;font-family:FoundrySterling-Bold;-inkscape-font-specification:FoundrySterling-Bold;font-variant-ligatures:normal;font-variant-caps:normal;font-variant-numeric:normal;font-feature-settings:normal;text-align:center;letter-spacing:0px;word-spacing:0px;writing-mode:lr-tb;white-space:pre;shape-inside:url(#rect43949-9);fill:#000000;fill-opacity:1;stroke:none"><tspan
           x="-6.375728"
           y="74.181347"
           id="tspan54432">1</tspan></text><text
         xml:space="preserve"
         transform="matrix(0.75000002,0,0,-0.75000002,42.830232,24.811133)"
         id="text43947-3-7"
         style="font-style:normal;font-variant:normal;font-weight:normal;font-stretch:normal;font-size:26.6667px;line-height:1.25;font-family:FoundrySterling-Bold;-inkscape-font-specification:FoundrySterling-Bold;font-variant-ligatures:normal;font-variant-caps:normal;font-variant-numeric:normal;font-feature-settings:normal;text-align:center;letter-spacing:0px;word-spacing:0px;writing-mode:lr-tb;white-space:pre;shape-inside:url(#rect43949-9-5);fill:#000000;fill-opacity:1;stroke:none"><tspan
           x="-6.375728"
           y="74.181347"
           id="tspan54434">2</tspan></text><text
         xml:space="preserve"
         transform="matrix(0.75000002,0,0,-0.75000002,753.36215,24.798597)"
         id="text43947-3-7-1"
         style="font-style:normal;font-variant:normal;font-weight:normal;font-stretch:normal;font-size:26.6667px;line-height:1.25;font-family:FoundrySterling-Bold;-inkscape-font-specification:FoundrySterling-Bold;font-variant-ligatures:normal;font-variant-caps:normal;font-variant-numeric:normal;font-feature-settings:normal;text-align:center;letter-spacing:0px;word-spacing:0px;writing-mode:lr-tb;white-space:pre;shape-inside:url(#rect43949-9-5-8);fill:#000000;fill-opacity:1;stroke:none"><tspan
           x="-6.375728"
           y="74.181347"
           id="tspan54436">3</tspan></text></g></g></svg>
